<svg xmlns="http://www.w3.org/2000/svg" viewBox="0 0 63.07 63.14"><defs><style>.cls-1{fill:currentColor;}.cls-2{fill:currentColor;}</style></defs><g id="Layer_2" data-name="Layer 2"><g id="Layer_1-2" data-name="Layer 1"><path class="cls-1" d="M30,33a22.31,22.31,0,0,0-8-.88A19.72,19.72,0,0,0,14.72,34c0-10.4.08-21.32.13-31.73a21.08,21.08,0,0,1,15-1.07Z"/><path class="cls-2" d="M47.64,34C46,33.42,43.52,31.63,40,31.79c-3.25.15-6.07.48-7.62,1.16.05-10.41.09-21.32.13-31.73A17.41,17.41,0,0,1,39.5,0c3.85,0,6.33,1.52,8,2C47.56,12.62,47.59,23.41,47.64,34Z"/><polygon class="cls-1" points="63.07 13.08 63.07 50.56 0 50.56 0 13.08 12.19 13.08 12.19 17.63 4.99 17.63 4.99 45.19 58.14 45.19 58.14 17.63 50.18 17.63 50.18 13.08 63.07 13.08"/><rect class="cls-2" x="20.16" y="53.28" width="22.63" height="1.9"/><rect class="cls-2" x="12.64" y="57.89" width="37.54" height="5.25"/></g></g></svg>