<svg xmlns="http://www.w3.org/2000/svg" viewBox="0 0 56.53 57.84"><defs><style>.cls-1{fill:#d5c4e0;}.cls-2{fill:#593795;}.cls-3{fill:#795ea8;}</style></defs><g id="Layer_2" data-name="Layer 2"><g id="Layer_1-2" data-name="Layer 1"><path class="cls-1" d="M25.55,5.88,19.39,1.46C18.25.65,16.83-.37,15.93.13a1.57,1.57,0,0,0-.65,1c0,8.42-.09,16.71-.06,25.13a10,10,0,0,0-7.64-2.13C4.47,24.63.7,26.82.09,30.32c-.77,4.38,3.72,9.08,8.62,9.35A10.13,10.13,0,0,0,18,33.92c.1-10-.07-20.06,0-30.09l5.34,3.8a1.41,1.41,0,0,0,2.15-1.75ZM9,36.93c-3.46,0-6.26-2.22-6.26-5S5.49,27,9,27s6.27,2.23,6.27,5S12.41,36.93,9,36.93Z"/><path class="cls-2" d="M55.88,3.11a1.8,1.8,0,0,0-1.4,0C53.39,3.4,42.05,7.3,26.55,12.7a.54.54,0,0,0-.31.2.6.6,0,0,0-.14.38l0,31.08A9.71,9.71,0,0,0,15.7,43.19c-2.52,1.33-5.26,4.39-4.73,8,.67,4.53,5.89,6.1,6.47,6.27a9.34,9.34,0,0,0,7-.72,9.42,9.42,0,0,0,4.48-6q.06-18,.14-36L53.83,6.33q0,9.25-.07,18.52c-3.83-2.62-8.58-2.64-11.71-.21-2.1,1.64-3.95,4.76-3.18,7.94,1,4,5.44,5.91,9,5.79a10,10,0,0,0,8.63-6.06l0-28.48A1.49,1.49,0,0,0,55.88,3.11ZM19.83,55c-3.46,0-6.27-2.22-6.27-5s2.81-5,6.27-5,6.26,2.23,6.26,5S23.28,55,19.83,55ZM47.55,35.63c-3.46,0-6.26-2.22-6.26-5s2.8-5,6.26-5,6.27,2.23,6.27,5S51,35.63,47.55,35.63Z"/><path class="cls-3" d="M15.22,32c0,2.74-2.81,5-6.27,5s-6.26-2.22-6.26-5S5.49,27,9,27,15.22,29.23,15.22,32Z"/><path class="cls-1" d="M26.09,50c0,2.74-2.81,5-6.26,5s-6.27-2.22-6.27-5,2.81-5,6.27-5S26.09,47.26,26.09,50Z"/><path class="cls-1" d="M53.82,30.67c0,2.74-2.81,5-6.27,5s-6.26-2.22-6.26-5,2.8-5,6.26-5S53.82,27.93,53.82,30.67Z"/></g></g></svg>