<svg xmlns="http://www.w3.org/2000/svg" viewBox="0 0 66.33 76.15">
    <defs>
        <style>
            .cls-1 {
                fill: none;
            }

            .cls-2 {
                fill: currentColor;
            }

            .cls-3 {
                fill: currentColor;
            }
        </style>
    </defs>
    <g id="Layer_2" data-name="Layer 2">
        <g id="Layer_1-2" data-name="Layer 1">
            <circle class="cls-1" cx="33.03" cy="31.78" r="6.5" transform="translate(-5.49 56.63) rotate(-76.72)" />
            <circle class="cls-1" cx="33.03" cy="31.78" r="6.5" transform="translate(-5.49 56.63) rotate(-76.72)" />
            <circle class="cls-1" cx="33.03" cy="31.78" r="6.5" transform="translate(-5.49 56.63) rotate(-76.72)" />
            <path class="cls-2"
                d="M33,22.26a9.37,9.37,0,1,0,9.37,9.37A9.38,9.38,0,0,0,33,22.26Zm0,16a6.5,6.5,0,1,1,6.5-6.5A6.49,6.49,0,0,1,33,38.28Z" />
            <circle class="cls-1" cx="33.03" cy="31.78" r="6.5" transform="translate(-5.49 56.63) rotate(-76.72)" />
            <path class="cls-3"
                d="M47,48a1.89,1.89,0,0,1-1.57-.52A1.84,1.84,0,0,1,45,46.08a23.39,23.39,0,0,0,4.6-7.59c0-.11.28-.78.45-1.35,1.12-3.91.08-9.1-2.13-12.78C44.69,19.09,37.64,14.49,29.63,16A17.28,17.28,0,0,0,16.07,30C14.43,38.67,20,45,20.58,45.67a1.41,1.41,0,0,1,0,1.71,1.46,1.46,0,0,1-1.57.49.91.91,0,0,1-.37-.19,20.42,20.42,0,0,1-4.94-7.18c-3.46-11,2.1-18.68,2.1-18.68a20.68,20.68,0,0,1,21.37-8.6,20.45,20.45,0,0,1,16,17C54.61,40.62,49.49,45.67,47,48Z" />
            <path class="cls-2"
                d="M66.33,33.17A33.15,33.15,0,0,1,46.57,63.51a1.92,1.92,0,0,1-1.33-.84,2,2,0,0,1,0-2A30,30,0,0,0,33.14,3.24,30,30,0,0,0,15,57.12a29.41,29.41,0,0,0,5.93,3.51,2,2,0,0,1,.1,1.76,1.94,1.94,0,0,1-1.4,1.06A33.17,33.17,0,1,1,66.33,33.17Z" />
            <path class="cls-1"
                d="M38.18,64.7a25.11,25.11,0,0,1-1.74,5,9.94,9.94,0,0,1-2,2.64A1.89,1.89,0,0,1,33.3,73a1.94,1.94,0,0,1-1.4-.67,12.09,12.09,0,0,1-3-4.43A48.37,48.37,0,0,1,26.8,55.06c-.15-6,.58-7.3,1.2-8.05a7.84,7.84,0,0,1,5-2.49,7.1,7.1,0,0,1,4.82,2.19c.73.84,1.2,1.91,1.46,5C39.73,56.7,39,60.37,38.18,64.7Z" />
            <path class="cls-3"
                d="M42.59,51.31a10.58,10.58,0,0,0-1.89-5.89,9.61,9.61,0,0,0-5.6-3.93c-4.16-.88-8.38,1.77-10.32,4.88C23.39,48.59,23.59,51.8,24,58.2a35.05,35.05,0,0,0,1.86,10A13.69,13.69,0,0,0,29.32,74c1,.93,2.42,2.27,4.26,2.13a5.89,5.89,0,0,0,3.53-2.07,9.81,9.81,0,0,0,2-2.92A37.17,37.17,0,0,0,42.05,61C42.69,55.75,42.77,54.48,42.59,51.31ZM38.18,64.7a25.11,25.11,0,0,1-1.74,5,9.94,9.94,0,0,1-2,2.64A1.89,1.89,0,0,1,33.3,73a1.94,1.94,0,0,1-1.4-.67,12.09,12.09,0,0,1-3-4.43A48.37,48.37,0,0,1,26.8,55.06c-.15-6,.58-7.3,1.2-8.05a7.84,7.84,0,0,1,5-2.49,7.1,7.1,0,0,1,4.82,2.19c.73.84,1.2,1.91,1.46,5C39.73,56.7,39,60.37,38.18,64.7Z" />
            <path class="cls-1"
                d="M38.18,64.7a25.11,25.11,0,0,1-1.74,5,9.94,9.94,0,0,1-2,2.64A1.89,1.89,0,0,1,33.3,73a1.94,1.94,0,0,1-1.4-.67,12.09,12.09,0,0,1-3-4.43A48.37,48.37,0,0,1,26.8,55.06c-.15-6,.58-7.3,1.2-8.05a7.84,7.84,0,0,1,5-2.49,7.1,7.1,0,0,1,4.82,2.19c.73.84,1.2,1.91,1.46,5C39.73,56.7,39,60.37,38.18,64.7Z" />
        </g>
    </g>
</svg>