<svg xmlns="http://www.w3.org/2000/svg" viewBox="0 0 55.01 54.96">
    <defs>
        <style>
            .cls-1 {
                fill: none;
            }

            .cls-2 {
                fill: currentColor;
            }

            .cls-3 {
                fill: currentColor;
            }
        </style>
    </defs>
    <g id="Layer_2" data-name="Layer 2">
        <g id="Layer_1-2" data-name="Layer 1">
            <path class="cls-1" d="M7.07,39.35l-.06,0" />
            <path class="cls-1" d="M7.07,39.28l-.06.1" />
            <path class="cls-2"
                d="M41.35,3.27H5.6A2.15,2.15,0,0,0,3.44,5.43V41A8,8,0,0,1,0,34.46V4.72A4.72,4.72,0,0,1,4.72,0H35.38A7.07,7.07,0,0,1,41.35,3.27Z" />
            <path class="cls-3"
                d="M48.43,10.23H12.67a2.16,2.16,0,0,0-2.16,2.16V48a8,8,0,0,1-3.44-6.58V11.68A4.72,4.72,0,0,1,11.79,7H42.46A7.07,7.07,0,0,1,48.43,10.23Z" />
            <path class="cls-2"
                d="M49.72,14.13H19.46a5.28,5.28,0,0,0-5.29,5.28V49.68A5.29,5.29,0,0,0,19.46,55H49.72A5.29,5.29,0,0,0,55,49.68V19.41A5.28,5.28,0,0,0,49.72,14.13Zm1.74,34.73a2.39,2.39,0,0,1-2.4,2.4H20a2.39,2.39,0,0,1-2.4-2.4V19.8A2.39,2.39,0,0,1,20,17.4H49.06a2.39,2.39,0,0,1,2.4,2.4Z" />
            <path class="cls-3"
                d="M49.06,17.4H20a2.39,2.39,0,0,0-2.4,2.4V48.86a2.39,2.39,0,0,0,2.4,2.4H49.06a2.39,2.39,0,0,0,2.4-2.4V19.8A2.39,2.39,0,0,0,49.06,17.4ZM31.38,24a1.84,1.84,0,0,1-1.28.53H24.9v5.4a1.79,1.79,0,0,1-1.8,1.8,1.75,1.75,0,0,1-1.27-.52,1.8,1.8,0,0,1-.53-1.28V22.72a1.81,1.81,0,0,1,1.8-1.8h7a1.81,1.81,0,0,1,1.81,1.8A1.84,1.84,0,0,1,31.38,24Z" />
            <path class="cls-2"
                d="M31.91,22.72a1.81,1.81,0,0,1-1.81,1.81H24.9v5.4a1.79,1.79,0,0,1-1.8,1.8,1.75,1.75,0,0,1-1.27-.52,1.8,1.8,0,0,1-.53-1.28V22.72a1.81,1.81,0,0,1,1.8-1.8h7A1.81,1.81,0,0,1,31.91,22.72Z" />
        </g>
    </g>
</svg>